<svg xmlns="http://www.w3.org/2000/svg" viewBox="0 0 512 160">
  <path fill="#1A1F71" d="M218.1 157.3h-40.1L205 3.6h40.1l-27 153.7zM354.4 6.9c-7.9-3.1-20.3-6.5-35.7-6.5-39.4 0-67.1 21-67.3 51.1-.3 22.2 19.8 34.5 34.9 41.9 15.5 7.6 20.8 12.4 20.7 19.2-.1 10.3-12.4 15-23.9 15-15.9 0-24.3-2.3-37.3-8l-5.1-2.3-5.5 31.5c9.2 4.2 26.3 7.9 44 8.1 41.6 0 68.6-20.8 68.9-53.1.2-17.7-10.4-31.2-33.2-42.3-13.8-7-22.2-11.6-22.1-18.7.1-6.3 7.1-13 22.5-13 12.8-.2 22.2 2.7 29.4 5.8l3.6 1.7 5.5-30.9zM476.3 3.6h-31.1c-9.6 0-17.8 5.6-21.4 14.2l-59.8 139.5h42c0 0 6.8-18.8 8.3-22.9 4.5 0 44.4.1 50.1.1 1.2 5.3 4.8 22.8 4.8 22.8h37l-30-153.7zm-46.7 99.1c3.2-8.2 15.6-40.1 15.6-40.1-.2.3 3.2-8.3 5.2-13.6l2.6 12.3s7.5 36.4 9.1 41.4h-32.5zM136.4 3.6L97 104.3l-4.1-21c-7.2-24.1-29.7-50.3-54.9-63.3l36.5 137.3h43.1L166.7 3.6h-30.3zM70.5 3.6H5.1L4.7 5.8c49.8 12.1 82.8 41.4 96.5 76.4L84.6 30.6C82.5 19.6 77 9.9 70.5 3.6z"/>
  <path fill="#F7A600" d="M440.2 27.9l-1.3 7.5s11.4 5.4 19.1 10.4c-.8-3.9-2.5-9.4-3.9-13.1-2.2-5.7-7.4-4.8-7.4-4.8h-6.5z"/>
</svg>
